<?xml version="1.0" standalone="no"?>
<!DOCTYPE svg PUBLIC "-//W3C//DTD SVG 20010904//EN"
 "http://www.w3.org/TR/2001/REC-SVG-20010904/DTD/svg10.dtd">
<svg version="1.0" xmlns="http://www.w3.org/2000/svg"
 width="495.000000pt" height="495.000000pt" viewBox="0 0 495.000000 495.000000"
 preserveAspectRatio="xMidYMid meet">
<metadata>
Created by potrace 1.14, written by Peter Selinger 2001-2017
</metadata>
<g transform="translate(0.000000,495.000000) scale(0.100000,-0.100000)"
fill="#000000" stroke="none">
<path d="M2299 4946 c-2 -2 -38 -6 -81 -10 -86 -7 -254 -37 -349 -61 -918
-236 -1619 -981 -1795 -1905 -33 -174 -42 -295 -39 -500 2 -113 6 -221 9 -240
4 -19 11 -64 16 -100 24 -154 91 -405 135 -505 8 -16 26 -59 40 -95 91 -223
288 -515 477 -710 120 -124 217 -207 348 -300 233 -166 567 -321 805 -375 277
-62 379 -73 645 -70 113 2 216 6 230 9 14 3 47 8 74 11 349 40 767 209 1085
437 84 61 104 77 206 168 281 251 512 590 648 950 41 108 91 277 101 340 2 14
9 45 14 70 10 44 14 72 31 220 13 111 10 380 -6 510 -26 220 -100 504 -173
665 -12 28 -33 75 -47 105 -14 30 -48 96 -76 145 -307 542 -794 938 -1386
1129 -114 37 -292 79 -386 90 -27 4 -66 9 -85 12 -39 6 -436 15 -441 10z"/>
</g>
</svg>
